<svg
  xmlns="http://www.w3.org/2000/svg"
  viewBox="0 0 24 24"
  width="24"
  height="24"
  aria-label="Yapp logo"
  role="img"
>
  <!-- Speech bubble outline — rounded corners, left-aligned angled tail -->
  <path
    d="M 5.5 2 H 18.5 A 3.5 3.5 0 0 1 22 5.5 V 13 A 3.5 3.5 0 0 1 18.5 16.5 H 9.5 L 5.5 21 L 7.5 16.5 H 5.5 A 3.5 3.5 0 0 1 2 13 V 5.5 A 3.5 3.5 0 0 1 5.5 2 Z"
    fill="none"
    stroke="currentColor"
    stroke-width="1.6"
    stroke-linecap="round"
    stroke-linejoin="round"
  />
  <!-- Y glyph — Righteous-style geometry -->
  <path
    d="M 6.2 4.8 Q 6 4.3 6.8 4.3 L 8.8 4.3 L 12 9.5 L 15.2 4.3 L 17.2 4.3 Q 18 4.3 17.8 4.8 L 13.8 10 Q 13.4 10.8 13.4 11.2 L 13.4 13.5 Q 13.4 14 12.9 14 L 11.1 14 Q 10.6 14 10.6 13.5 L 10.6 11.2 Q 10.6 10.8 10.2 10 Z"
    fill="currentColor"
  />
</svg>
